<svg width="64" height="64" viewBox="0 0 64 64" fill="none" xmlns="http://www.w3.org/2000/svg">
<rect width="64" height="64" rx="12" fill="#562DF9"/>
<mask id="mask0_243_3" style="mask-type:alpha" maskUnits="userSpaceOnUse" x="8" y="8" width="48" height="48">
<rect x="8" y="8" width="48" height="48" fill="#D9D9D9"/>
</mask>
<g mask="url(#mask0_243_3)">
<path d="M19 52C17.0667 52 15.4167 51.3167 14.05 49.95C12.6833 48.5833 12 46.9333 12 45C12 43.0667 12.6833 41.4167 14.05 40.05C15.4167 38.6833 17.0667 38 19 38C19.6 38 20.1833 38.075 20.75 38.225C21.3167 38.375 21.85 38.5833 22.35 38.85L30 31.2V25.7C28.5333 25.2667 27.3333 24.4417 26.4 23.225C25.4667 22.0083 25 20.6 25 19C25 17.0667 25.6833 15.4167 27.05 14.05C28.4167 12.6833 30.0667 12 32 12C33.9333 12 35.5833 12.6833 36.95 14.05C38.3167 15.4167 39 17.0667 39 19C39 20.6 38.5333 22.0083 37.6 23.225C36.6667 24.4417 35.4667 25.2667 34 25.7V31.2L41.7 38.85C42.2 38.5833 42.725 38.375 43.275 38.225C43.825 38.075 44.4 38 45 38C46.9333 38 48.5833 38.6833 49.95 40.05C51.3167 41.4167 52 43.0667 52 45C52 46.9333 51.3167 48.5833 49.95 49.95C48.5833 51.3167 46.9333 52 45 52C43.0667 52 41.4167 51.3167 40.05 49.95C38.6833 48.5833 38 46.9333 38 45C38 44.4 38.075 43.8167 38.225 43.25C38.375 42.6833 38.5833 42.15 38.85 41.65L32 34.8L25.15 41.65C25.4167 42.15 25.625 42.6833 25.775 43.25C25.925 43.8167 26 44.4 26 45C26 46.9333 25.3167 48.5833 23.95 49.95C22.5833 51.3167 20.9333 52 19 52ZM45 48C45.8333 48 46.5417 47.7083 47.125 47.125C47.7083 46.5417 48 45.8333 48 45C48 44.1667 47.7083 43.4583 47.125 42.875C46.5417 42.2917 45.8333 42 45 42C44.1667 42 43.4583 42.2917 42.875 42.875C42.2917 43.4583 42 44.1667 42 45C42 45.8333 42.2917 46.5417 42.875 47.125C43.4583 47.7083 44.1667 48 45 48ZM32 22C32.8333 22 33.5417 21.7083 34.125 21.125C34.7083 20.5417 35 19.8333 35 19C35 18.1667 34.7083 17.4583 34.125 16.875C33.5417 16.2917 32.8333 16 32 16C31.1667 16 30.4583 16.2917 29.875 16.875C29.2917 17.4583 29 18.1667 29 19C29 19.8333 29.2917 20.5417 29.875 21.125C30.4583 21.7083 31.1667 22 32 22ZM19 48C19.8333 48 20.5417 47.7083 21.125 47.125C21.7083 46.5417 22 45.8333 22 45C22 44.1667 21.7083 43.4583 21.125 42.875C20.5417 42.2917 19.8333 42 19 42C18.1667 42 17.4583 42.2917 16.875 42.875C16.2917 43.4583 16 44.1667 16 45C16 45.8333 16.2917 46.5417 16.875 47.125C17.4583 47.7083 18.1667 48 19 48Z" fill="white"/>
</g>
</svg>
